<?xml version="1.0" standalone="no"?>
<!DOCTYPE svg PUBLIC "-//W3C//DTD SVG 20010904//EN"
 "http://www.w3.org/TR/2001/REC-SVG-20010904/DTD/svg10.dtd">
<svg version="1.0" xmlns="http://www.w3.org/2000/svg"
 width="500.000000pt" height="500.000000pt" viewBox="0 0 500.000000 500.000000"
 preserveAspectRatio="xMidYMid meet">

<g transform="translate(0.000000,500.000000) scale(0.100000,-0.100000)"
fill="#000000" stroke="none">
<path d="M0 2500 l0 -2500 2500 0 2500 0 0 2500 0 2500 -2500 0 -2500 0 0
-2500z m1672 634 c66 -42 146 -159 276 -403 l50 -94 22 59 c53 144 176 336
252 395 46 36 107 66 150 74 33 6 40 3 75 -32 78 -78 77 -75 83 -470 4 -315 7
-354 22 -369 15 -15 21 -16 45 -5 25 11 29 10 46 -10 15 -18 15 -25 5 -34 -7
-6 -64 -53 -126 -104 -111 -91 -114 -92 -138 -77 -27 18 -64 73 -84 126 -11
26 -15 123 -18 393 -3 268 -7 357 -15 354 -33 -10 -86 -150 -152 -397 l-36
-135 27 -23 c18 -16 35 -22 51 -19 17 3 27 -2 35 -16 12 -23 21 -13 -148 -163
-34 -30 -68 -54 -77 -54 -34 0 -100 97 -181 265 -45 94 -92 190 -104 215 l-22
45 4 -160 c2 -88 7 -170 11 -182 9 -28 29 -35 60 -21 21 10 28 8 40 -8 8 -10
15 -22 15 -26 0 -5 -163 -142 -238 -201 -18 -14 -84 52 -114 112 -22 44 -23
59 -28 376 -3 182 -9 338 -14 348 -9 19 -47 22 -77 6 -24 -12 -49 3 -48 30 0
9 62 67 137 129 148 122 145 121 214 76z m1608 9 c171 -23 268 -22 312 4 33
20 36 20 58 3 13 -10 21 -23 17 -31 -3 -8 -73 -99 -156 -204 l-150 -190 94 -3
95 -3 0 -33 c0 -28 -10 -43 -61 -90 l-60 -56 -107 0 -107 0 -79 -101 c-43 -55
-76 -102 -75 -103 8 -7 250 -26 321 -26 84 0 166 21 217 56 32 22 36 22 53 7
10 -9 18 -20 18 -24 0 -4 -62 -73 -137 -153 l-137 -146 -56 0 c-30 0 -122 9
-205 20 -195 26 -279 26 -329 1 -35 -18 -40 -19 -62 -4 -13 8 -24 18 -24 22 1
3 81 105 180 226 l178 220 -114 3 -114 3 0 32 c0 26 11 44 58 90 l58 57 130 0
131 0 66 83 67 82 -47 7 c-27 4 -118 10 -203 14 -172 8 -232 -2 -305 -51 l-38
-26 -23 22 -23 22 142 149 142 149 80 -6 c44 -4 132 -13 195 -22z m-1662
-1382 l18 -44 23 64 c13 35 27 68 31 73 5 4 16 -27 25 -70 9 -44 19 -87 22
-96 3 -11 -1 -18 -10 -18 -10 0 -17 15 -21 43 -11 73 -21 74 -47 6 l-23 -63
-22 49 c-13 28 -23 56 -23 63 -2 29 -20 -1 -27 -43 -6 -42 -19 -64 -30 -52 -4
4 20 130 33 172 6 22 10 16 51 -84z m373 70 c38 -39 39 -87 3 -130 -56 -66
-164 -25 -164 63 0 52 44 96 95 96 27 0 44 -8 66 -29z m177 -43 l31 -73 32 73
c28 63 49 90 49 63 0 -9 -65 -164 -76 -183 -7 -10 -83 155 -84 180 -1 31 20 6
48 -60z m242 -29 c0 -72 -3 -89 -15 -89 -12 0 -15 16 -15 88 0 49 3 92 6 95
17 17 24 -11 24 -94z m240 94 c0 -5 -23 -42 -50 -83 l-50 -75 50 -3 c76 -5 60
-22 -21 -22 l-71 0 14 23 c8 12 31 48 52 79 l36 57 -47 3 c-26 2 -48 9 -51 16
-3 9 15 12 67 12 39 0 71 -3 71 -7z m261 -22 c39 -39 41 -100 4 -136 -53 -54
-166 -12 -165 62 1 89 100 135 161 74z m195 -37 l39 -57 5 58 c3 34 10 60 18
63 9 3 12 -21 12 -100 -1 -116 4 -115 -70 -12 l-35 49 -3 -62 c-5 -100 -22
-74 -22 33 0 52 4 93 9 90 4 -3 26 -31 47 -62z m302 54 c-3 -7 -23 -14 -46
-16 -39 -3 -42 -5 -42 -33 0 -28 2 -29 46 -29 27 0 43 -4 39 -10 -3 -5 -24
-10 -46 -10 -37 0 -39 -2 -39 -30 0 -29 2 -30 45 -30 25 0 45 -4 45 -10 0 -6
-27 -10 -60 -10 l-60 0 0 88 c0 49 3 92 7 95 3 4 31 7 61 7 38 0 53 -4 50 -12z"/>
<path d="M1888 1824 c-75 -40 -21 -156 60 -128 40 14 59 54 43 91 -7 17 -24
35 -37 42 -31 14 -33 14 -66 -5z"/>
<path d="M2805 1817 c-36 -31 -39 -82 -6 -109 68 -55 160 34 104 100 -29 34
-66 37 -98 9z"/>
</g>
</svg>
